<?xml version="1.0" encoding="UTF-8" standalone="no"?><!DOCTYPE svg PUBLIC "-//W3C//DTD SVG 1.1//EN" "http://www.w3.org/Graphics/SVG/1.1/DTD/svg11.dtd"><svg width="100%" height="100%" viewBox="0 0 32 32" version="1.1" xmlns="http://www.w3.org/2000/svg" xmlns:xlink="http://www.w3.org/1999/xlink" xml:space="preserve" xmlns:serif="http://www.serif.com/" style="fill-rule:evenodd;clip-rule:evenodd;stroke-linejoin:round;stroke-miterlimit:2;"><g><path d="M17.547,0.075l0.51,2.48c0.986,0.152 1.953,0.411 2.882,0.774l1.683,-1.895c0.941,0.428 1.839,0.947 2.679,1.547l-0.798,2.405c0.778,0.624 1.487,1.33 2.11,2.11l2.404,-0.8c0.602,0.84 1.12,1.739 1.548,2.681l-1.893,1.681c0.363,0.93 0.621,1.898 0.772,2.884l2.481,0.51c0.101,1.029 0.101,2.065 0,3.095l-2.481,0.51c-0.151,0.986 -0.41,1.953 -0.772,2.882l1.893,1.682c-0.428,0.941 -0.946,1.839 -1.548,2.681l-2.404,-0.8c-0.623,0.778 -1.331,1.487 -2.11,2.11l0.798,2.403c-0.841,0.602 -1.738,1.12 -2.679,1.547l-1.683,-1.893c-0.929,0.363 -1.896,0.622 -2.882,0.772l-0.51,2.482c-1.03,0.1 -2.065,0.1 -3.095,0l-0.509,-2.482c-0.987,-0.15 -1.954,-0.41 -2.883,-0.772l-1.682,1.893c-0.941,-0.428 -1.84,-0.945 -2.681,-1.547l0.8,-2.403c-0.778,-0.624 -1.487,-1.332 -2.111,-2.11l-2.404,0.8c-0.602,-0.842 -1.12,-1.74 -1.548,-2.681l1.895,-1.682c-0.363,-0.93 -0.621,-1.896 -0.772,-2.882l-2.483,-0.51c-0.099,-1.03 -0.099,-2.066 0,-3.095l2.483,-0.51c0.151,-0.986 0.41,-1.954 0.772,-2.884l-1.895,-1.681c0.428,-0.942 0.946,-1.84 1.548,-2.681l2.404,0.8c0.625,-0.78 1.333,-1.487 2.111,-2.11l-0.8,-2.405c0.841,-0.601 1.74,-1.12 2.681,-1.547l1.682,1.895c0.929,-0.363 1.896,-0.622 2.883,-0.774l0.509,-2.48c1.03,-0.1 2.065,-0.1 3.095,0Zm6.51,23.523l-6.876,-17.196l-2.364,-0l-6.876,17.196l1.8,0c0.2,0 0.367,-0.056 0.504,-0.168c0.136,-0.112 0.232,-0.24 0.288,-0.384l1.607,-4.152l7.717,0l1.609,4.152c0.064,0.161 0.16,0.293 0.288,0.396c0.128,0.105 0.296,0.156 0.504,0.156l1.799,0Zm-11.267,-6.384l2.699,-6.985c0.081,-0.208 0.16,-0.448 0.241,-0.719c0.088,-0.281 0.177,-0.584 0.264,-0.912c0.169,0.648 0.34,1.188 0.516,1.62l2.701,6.995l-6.42,0Z" style="fill:#fd5500;"/></g></svg>