<?xml version="1.0" encoding="UTF-8" standalone="no"?><!DOCTYPE svg PUBLIC "-//W3C//DTD SVG 1.1//EN" "http://www.w3.org/Graphics/SVG/1.1/DTD/svg11.dtd"><svg width="100%" height="100%" viewBox="0 0 32 32" version="1.1" xmlns="http://www.w3.org/2000/svg" xmlns:xlink="http://www.w3.org/1999/xlink" xml:space="preserve" xmlns:serif="http://www.serif.com/" style="fill-rule:evenodd;clip-rule:evenodd;stroke-linejoin:round;stroke-miterlimit:2;"><g><g id="MappingContext"><path d="M11.289,20.987l-10.865,0l0,-9.974l10.865,0l0,-10.61l9.974,-0l0,10.61l10.313,0l0,9.974l-10.313,0l0,10.567l-9.974,0l0,-10.567Zm4.711,-18.987l-3.65,7.299l7.3,0l-3.65,-7.299Zm-13.984,13.979l7.3,3.65l0,-7.3l-7.3,3.65Zm27.984,0.021l-7.3,-3.649l0,7.299l7.3,-3.65Zm-14,14.001l3.65,-7.3l-7.3,0l3.65,7.3Z" style="fill:#fd5500;"/></g></g></svg>